# xmcd
#
# Track frame offsets:
#	150
#	13904
#	27612
#	42305
#	56786
#	70696
#	87405
#	100861
#	116066
#	129630
#	146547
#	162405
#
# Disc length: 2386 seconds
#
# Revision: 1
# Processed by: cddbd v1.5.2PL0 Copyright (c) Steve Scherf et al.
# Submitted via: audiograbber 1.83.01
#
DISCID=ae09500c
DTITLE=Michael Ray - Michael Ray
DYEAR=2015
DGENRE=Country
TTITLE0=Kiss You In the Morning
TTITLE1=Another Girl
TTITLE2=Look Like This
TTITLE3=Real Men Love Jesus
TTITLE4=Livin' It Up
TTITLE5=Run Away With You
TTITLE6=Think a Little Less
TTITLE7=Wish I Was Here
TTITLE8=This Love
TTITLE9=Drivin' All Night
TTITLE10=Everything In Between
TTITLE11=Somewhere South
EXTD=
EXTT0=
EXTT1=
EXTT2=
EXTT3=
EXTT4=
EXTT5=
EXTT6=
EXTT7=
EXTT8=
EXTT9=
EXTT10=
EXTT11=
PLAYORDER=
